<svg width="17" height="18" viewBox="0 0 17 18" fill="none" xmlns="http://www.w3.org/2000/svg">
<path fill-rule="evenodd" clip-rule="evenodd" d="M11.3836 0.0177453C11.3967 -0.000947982 11.4225 -0.00549094 11.4412 0.00759823L12.7192 0.902525C12.7379 0.915613 12.7425 0.941376 12.7294 0.960069L10.9505 3.50055C11.8153 3.77684 12.4045 4.07486 12.4045 4.07486C12.4045 4.07486 10.9644 6.55205 8.52173 6.55205C6.0791 6.55205 4.34339 4.24326 4.34339 4.24326C4.34339 4.24326 4.95884 3.85049 5.87115 3.51363L3.91996 1.18833C3.9053 1.17084 3.90759 1.14478 3.92506 1.13011L5.12028 0.1272C5.13778 0.112532 5.16383 0.114812 5.17849 0.132293L7.64901 3.07654C7.86054 3.05261 8.07605 3.03923 8.29353 3.03923C8.60611 3.03923 8.9183 3.063 9.22307 3.10332L11.3836 0.0177453ZM11.8669 6.66937C12.5187 6.20383 13.5051 4.98875 13.5051 4.98875C13.5051 4.98875 16.0245 6.98528 16.0245 11.2187C16.0245 15.452 11.6688 17.9999 11.6688 17.9999C11.6688 17.9999 9.58768 15.8983 9.07678 13.2341C8.56592 10.5699 9.8325 7.6116 9.8325 7.6116C9.8325 7.6116 11.215 7.13491 11.8669 6.66937ZM4.84672 6.66937C4.19489 6.20383 3.20854 4.98875 3.20854 4.98875C3.20854 4.98875 0.689087 6.98528 0.689087 11.2187C0.689087 15.452 5.04483 17.9999 5.04483 17.9999C5.04483 17.9999 7.12592 15.8983 7.63681 13.2341C8.14767 10.5699 6.88109 7.6116 6.88109 7.6116C6.88109 7.6116 5.49859 7.13491 4.84672 6.66937Z" fill="white"/>
</svg>
