<svg width="124" height="145" viewBox="0 0 124 145" fill="none" xmlns="http://www.w3.org/2000/svg">
<path fill-rule="evenodd" clip-rule="evenodd" d="M86.2144 0.542108C86.3193 0.392563 86.5252 0.356219 86.6748 0.460932L96.8993 7.6203C97.049 7.72501 97.0853 7.93111 96.9806 8.08065L82.7497 28.4044C89.6681 30.6147 94.3816 32.9988 94.3816 32.9988C94.3816 32.9988 82.8605 52.8163 63.3195 52.8163C43.7785 52.8163 29.8929 34.346 29.8929 34.346C29.8929 34.346 34.8165 31.2039 42.1149 28.509L26.5056 9.9067C26.3883 9.76683 26.4066 9.55834 26.5463 9.441L36.108 1.41774C36.2481 1.3004 36.4565 1.31864 36.5738 1.45849L56.3378 25.0123C58.03 24.8209 59.7541 24.7139 61.4939 24.7139C63.9945 24.7139 66.492 24.904 68.9302 25.2266L86.2144 0.542108ZM90.0804 53.7548C95.2951 50.0305 103.186 40.3099 103.186 40.3099C103.186 40.3099 123.341 56.2821 123.341 90.1491C123.341 124.016 88.4956 144.399 88.4956 144.399C88.4956 144.399 71.847 127.585 67.7599 106.272C63.673 84.9587 73.8056 61.2926 73.8056 61.2926C73.8056 61.2926 84.8655 57.4791 90.0804 53.7548ZM33.9196 53.7548C28.7049 50.0305 20.8142 40.3099 20.8142 40.3099C20.8142 40.3099 0.658691 56.2821 0.658691 90.1491C0.658691 124.016 35.5044 144.399 35.5044 144.399C35.5044 144.399 52.153 127.585 56.2402 106.272C60.327 84.9587 50.1944 61.2926 50.1944 61.2926C50.1944 61.2926 39.1345 57.4791 33.9196 53.7548Z" fill="#91C12F"/>
</svg>
