<svg width="19" height="18" viewBox="0 0 19 18" fill="none" xmlns="http://www.w3.org/2000/svg">
<path fill-rule="evenodd" clip-rule="evenodd" d="M8.29938 15.9207C8.64135 15.9731 8.99158 16.0002 9.3482 16.0002C13.1452 16.0002 16.2232 12.9222 16.2232 9.12519C16.2232 5.32819 13.1452 2.25013 9.3482 2.25013C9.09346 2.25013 8.84191 2.26399 8.59438 2.29099C10.4779 3.71795 11.7232 6.18984 11.7232 9.00017C11.7232 11.9547 10.3468 14.5352 8.29938 15.9207ZM9.22319 18.0002C14.1938 18.0002 18.2232 13.9708 18.2232 9.00017C18.2232 4.02958 14.1938 0.00012207 9.22319 0.00012207C4.25259 0.00012207 0.223145 4.02958 0.223145 9.00017C0.223145 13.9708 4.25259 18.0002 9.22319 18.0002Z" fill="white"/>
</svg>
