<svg width="17" height="18" viewBox="0 0 17 18" fill="none" xmlns="http://www.w3.org/2000/svg">
<path fill-rule="evenodd" clip-rule="evenodd" d="M9.16255 8.96071C9.28454 8.88632 9.38804 8.73043 9.4715 8.55718C10.57 9.00613 11.3419 10.067 11.3419 11.3042C11.3419 12.9478 9.97958 14.2802 8.2991 14.2802C7.60926 14.2802 6.97304 14.0556 6.46267 13.6772C6.29526 13.5979 6.15751 13.5218 6.0448 13.4595C5.86997 13.3628 5.75532 13.2994 5.68353 13.3094C5.47369 13.3383 5.53461 13.5314 5.58998 13.7068C5.62756 13.8259 5.66262 13.9369 5.60837 13.9827C5.55163 14.0306 5.36783 13.8554 5.15306 13.6506C4.8607 13.3719 4.51096 13.0384 4.34604 13.1386C4.21565 13.2178 4.34225 13.4326 4.49722 13.6956L4.50871 13.7151C4.57417 13.8263 4.65004 13.9395 4.71926 14.0427C4.85999 14.2527 4.97334 14.4218 4.91663 14.4505C4.84808 14.4851 4.37044 14.1627 3.96794 13.7151C3.81258 13.5424 3.66211 13.3551 3.52226 13.1811V13.1811C3.21615 12.8002 2.96112 12.4829 2.81797 12.5205C2.64575 12.5657 2.77603 12.9209 2.96745 13.2628C3.05696 13.4226 3.16225 13.5854 3.25342 13.7263V13.7264C3.3952 13.9455 3.50282 14.1119 3.46379 14.1323C3.41113 14.1599 2.94773 13.708 2.63299 13.1386C2.44604 12.8003 2.28907 12.4265 2.16199 12.1239C2.02417 11.7958 1.92151 11.5513 1.85391 11.5267C1.61905 11.4412 1.61904 11.9201 1.71324 12.6112C1.72553 12.7014 1.74383 12.796 1.76636 12.8923C2.67987 15.848 5.4861 18.0001 8.80623 18.0001C12.8674 18.0001 16.1596 14.7802 16.1596 10.8082C16.1596 7.02777 13.1773 3.92863 9.38818 3.63848C9.39296 3.46039 9.48591 3.10723 9.48591 3.10723C9.48591 3.10723 10.1548 1.48878 10.1902 1.14293C10.1925 1.11998 10.1953 1.09504 10.1983 1.06847C10.2399 0.694793 10.3175 0 9.71974 0C9.40052 0 9.25209 0.237469 9.08232 0.509062V0.509065C9.01714 0.613329 8.94879 0.722623 8.86646 0.825438C8.27344 1.56599 7.27626 2.49079 6.71084 2.98348C5.51573 4.02485 4.34319 4.8807 3.65933 5.37985L3.6593 5.37988C3.34827 5.60689 3.13835 5.76014 3.07338 5.82345C2.58379 6.30074 0.828352 9.46714 0.828352 9.46714C0.828352 9.46714 0.260663 10.483 0.462444 10.6891C0.664224 10.8951 1.15082 10.8479 1.15082 10.8479C1.15082 10.8479 7.68784 9.3482 8.27309 9.22994C8.43066 9.19808 8.54189 9.1797 8.62729 9.1656C8.85915 9.12732 8.90077 9.12042 9.16255 8.96071ZM4.54063 7.03354C4.18974 7.36707 3.60779 8.16319 3.60779 8.16319C3.60779 8.16319 4.68935 8.22981 5.285 7.66361C5.88069 7.09738 5.74421 6.13244 5.74421 6.13244C5.74421 6.13244 4.89149 6.70001 4.54063 7.03354Z" fill="white"/>
</svg>
