<svg width="19" height="18" viewBox="0 0 19 18" fill="none" xmlns="http://www.w3.org/2000/svg">
<path fill-rule="evenodd" clip-rule="evenodd" d="M4.49393 14.2727L7.38105 13.4356L9.87469 17.9951C9.87796 18.001 9.88643 18.001 9.88967 17.9951L12.3833 13.4356L15.2705 14.2727C15.2769 14.2746 15.2829 14.2686 15.281 14.2621L14.4437 11.4321L18.8775 9.00722C18.8834 9.00399 18.8834 8.99551 18.8775 8.99228L14.4072 6.54736L15.281 3.59387C15.2829 3.5874 15.2769 3.58139 15.2705 3.58325L12.3156 4.44005L9.88967 0.00443632C9.88643 -0.00147867 9.87796 -0.00147883 9.87473 0.00443618L7.44879 4.44005L4.49393 3.58325C4.48746 3.58139 4.48145 3.5874 4.48338 3.59387L5.35719 6.54736L0.886883 8.99228C0.880968 8.99551 0.880967 9.00399 0.886882 9.00722L5.32063 11.4321L4.48338 14.2621C4.48145 14.2686 4.48746 14.2746 4.49393 14.2727ZM6.73431 9.03085L8.77967 10.1495L9.89832 12.1948C9.90155 12.2008 9.91006 12.2008 9.91329 12.1948L11.0319 10.1495L13.0773 9.03085C13.0832 9.02761 13.0832 9.0191 13.0773 9.01587L11.0319 7.89723L9.91329 5.8519C9.91006 5.84595 9.90155 5.84595 9.89832 5.8519L8.77967 7.89723L6.73431 9.01587C6.7284 9.0191 6.7284 9.02761 6.73431 9.03085Z" fill="white"/>
</svg>
