<svg width="18" height="18" viewBox="0 0 18 18" fill="none" xmlns="http://www.w3.org/2000/svg">
<path fill-rule="evenodd" clip-rule="evenodd" d="M2.74895 1.49633C2.96679 0.636259 3.74597 -0.00012207 4.67374 -0.00012207C5.36967 -0.00012207 5.98199 0.357936 6.3365 0.899883H6.91704C7.27771 0.529742 7.78161 0.299879 8.33922 0.299879C9.15675 0.299879 9.8589 0.793999 10.1633 1.49989H10.6493C10.9539 1.30975 11.3137 1.19988 11.6992 1.19988C12.5168 1.19988 13.2189 1.694 13.5233 2.39989H14.845C14.8563 2.39989 14.8669 2.40293 14.876 2.40824C14.9363 2.40271 14.9975 2.39989 15.0592 2.39989C16.1558 2.39989 17.0447 3.28881 17.0447 4.38536V10.3389L17.0447 10.3499L17.0447 10.361V10.4467C17.0447 10.483 17.0437 10.5192 17.0417 10.5552C16.9223 14.6853 13.2085 18 8.64466 18C4.00545 18 0.244629 14.5749 0.244629 10.3499C0.244629 8.31054 1.1209 6.45752 2.54926 5.08614C2.5457 7.07434 2.57928 9.1298 2.73408 9.09453C3.14859 9.00003 2.82473 2.84191 2.74895 1.49633Z" fill="white"/>
</svg>
