<svg width="108" height="145" viewBox="0 0 108 145" fill="none" xmlns="http://www.w3.org/2000/svg">
<path fill-rule="evenodd" clip-rule="evenodd" d="M81.1207 111.604C82.8999 105.099 79.4464 91.7246 79.4464 91.7246C79.4464 91.7246 76.9416 102.62 73.0277 106.647C69.6887 110.082 65.5979 112.464 59.7311 113.09C64.5278 110.76 67.8266 105.902 67.8266 100.287C67.8266 92.4049 61.3263 86.0149 53.3079 86.0149C45.2894 86.0149 38.7889 92.4049 38.7889 100.287C38.7889 102.44 39.2741 104.482 40.1423 106.312C35.127 102.316 34.3384 95.9107 34.3384 95.9107C34.3384 95.9107 28.7382 119.162 44.1692 130.099C59.6 141.036 89.8285 131.635 89.8285 131.635C89.8285 131.635 46.5697 162.073 14.5145 128.945C-13.0984 100.408 7.30751 62.8382 7.30751 62.8382C7.30751 62.8382 6.42624 66.3235 6.42624 70.3693C6.42624 74.4151 8.61979 77.4933 8.61979 77.4933C8.61979 77.4933 15.1631 63.7011 20.2554 58.0922C25.0749 52.7838 31.1164 48.4785 36.3347 44.7598C40.3515 41.8972 43.8807 39.3823 45.9884 37.0251C57.5975 24.0442 50.4794 0.399902 50.4794 0.399902C50.4794 0.399902 63.5659 11.9368 67.2193 26.8368C68.6121 32.5164 67.716 38.9787 66.915 44.7575C65.6145 54.1389 64.5635 61.7194 73.9587 61.2275C89.1411 60.4324 75.9479 37.0251 75.9479 37.0251C75.9479 37.0251 110.388 55.1264 107.815 86.7844C105.242 118.442 70.1705 125.64 70.1705 125.64C70.1705 125.64 79.3412 118.11 81.1207 111.604Z" fill="#FF9D55"/>
</svg>
