<svg width="15" height="18" viewBox="0 0 15 18" fill="none" xmlns="http://www.w3.org/2000/svg">
<path fill-rule="evenodd" clip-rule="evenodd" d="M10.8547 13.9009C11.0771 13.0877 10.6454 11.4159 10.6454 11.4159C10.6454 11.4159 10.3323 12.7778 9.84302 13.2812C9.42565 13.7106 8.9143 14.0084 8.18093 14.0866C8.78053 13.7954 9.19287 13.1881 9.19287 12.4862C9.19287 11.5009 8.38034 10.7022 7.37803 10.7022C6.37572 10.7022 5.56315 11.5009 5.56315 12.4862C5.56315 12.7553 5.62379 13.0105 5.73232 13.2393C5.10541 12.7399 5.00683 11.9392 5.00683 11.9392C5.00683 11.9392 4.3068 14.8455 6.23569 16.2127C8.16455 17.5799 11.9431 16.4047 11.9431 16.4047C11.9431 16.4047 6.53575 20.2095 2.52883 16.0685C-0.9228 12.5013 1.62795 7.80508 1.62795 7.80508C1.62795 7.80508 1.51779 8.24074 1.51779 8.74646C1.51779 9.25219 1.79199 9.63698 1.79199 9.63698C1.79199 9.63698 2.6099 7.91294 3.24644 7.21181C3.84889 6.54827 4.60408 6.0101 5.25637 5.54526C5.75848 5.18744 6.19962 4.87307 6.46308 4.57842C7.91424 2.9558 7.02446 0.000244141 7.02446 0.000244141C7.02446 0.000244141 8.66029 1.44236 9.11697 3.30487C9.29107 4.01483 9.17906 4.82262 9.07893 5.54498C8.91637 6.71766 8.78499 7.66523 9.95939 7.60374C11.8572 7.50435 10.2081 4.57842 10.2081 4.57842C10.2081 4.57842 14.513 6.84109 14.1914 10.7984C13.8698 14.7556 9.48587 15.6553 9.48587 15.6553C9.48587 15.6553 10.6322 14.7141 10.8547 13.9009Z" fill="white"/>
</svg>
