<svg width="18" height="16" viewBox="0 0 18 16" fill="none" xmlns="http://www.w3.org/2000/svg">
<path fill-rule="evenodd" clip-rule="evenodd" d="M6.28141 15.7953C8.91825 15.7953 11.1757 14.3298 12.1077 12.2523C12.1191 12.227 8.36601 13.2276 8.48569 12.8739C8.53912 12.7159 10.8398 11.8755 12.5159 10.8952C13.4793 10.3317 13.9229 9.13899 13.9229 9.13899C13.9229 9.13899 12.2999 9.92702 11.4794 10.1269C9.82588 10.5298 8.37037 10.4864 8.37037 10.4445C8.37037 10.3537 10.7872 9.89447 14.1463 7.84748C15.7264 6.88465 16.1555 5.22618 16.1555 5.22618C16.1555 5.22618 14.4184 6.26091 13.3683 6.60252C10.8779 7.41263 8.60536 7.65676 8.60536 7.54714C8.60536 7.31244 10.6053 6.76248 12.7257 5.73504C13.8282 5.20083 14.783 4.50291 15.8895 3.72676C17.7 2.45687 17.9986 0.19519 17.9986 0.19519C17.9986 0.19519 16.2129 1.34692 15.3415 1.7294C11.7457 3.30763 8.57069 4.13549 6.28141 4.31472C2.82568 4.58528 -0.00146484 6.99642 -0.00146484 10.1269C-0.00146484 13.2575 2.81147 15.7953 6.28141 15.7953Z" fill="white"/>
</svg>
