<svg width="19" height="18" viewBox="0 0 19 18" fill="none" xmlns="http://www.w3.org/2000/svg">
<g clip-path="url(#clip0_1257_35401)">
<path fill-rule="evenodd" clip-rule="evenodd" d="M13.1477 17.9378C11.524 18.0209 9.66522 18.0209 9.03353 17.9378C4.10607 17.2895 0.176636 13.6869 0.176636 8.81723C0.176636 3.94761 4.20609 0 9.17668 0C14.1473 0 18.1767 3.94761 18.1767 8.81723C18.1767 11.082 17.3051 13.1474 15.8726 14.709C15.4836 15.133 16.0173 15.4304 16.5596 15.7326C17.0915 16.0291 17.6315 16.33 17.3176 16.7595C16.9718 17.2327 15.0967 17.838 13.1477 17.9378ZM7.91105 7.71508C7.91105 8.47594 7.28144 9.09276 6.5048 9.09276C5.72815 9.09276 5.09854 8.47594 5.09854 7.71508C5.09854 7.20478 5.38172 6.75932 5.80251 6.5212C5.82673 7.18464 6.37222 7.71505 7.0416 7.71505H7.91105V7.71508ZM12.2696 6.5212C12.2454 7.18464 11.6999 7.71505 11.0305 7.71505H10.1611V7.71508C10.1611 8.47594 10.7907 9.09276 11.5673 9.09276C12.344 9.09276 12.9736 8.47594 12.9736 7.71508C12.9736 7.20478 12.6904 6.75932 12.2696 6.5212Z" fill="white"/>
</g>
<defs>
<clipPath id="clip0_1257_35401">
<rect width="18.0001" height="18.0001" fill="white" transform="translate(0.176636)"/>
</clipPath>
</defs>
</svg>
