<svg width="17" height="18" viewBox="0 0 17 18" fill="none" xmlns="http://www.w3.org/2000/svg">
<path fill-rule="evenodd" clip-rule="evenodd" d="M3.48369 15.4919C3.4219 15.4338 3.3608 15.3745 3.30041 15.3141C0.112265 12.126 0.112266 6.957 3.30041 3.76887C6.48854 0.580715 16.6472 0.367432 16.6472 0.367432C16.6472 0.367432 18.0338 12.126 14.8457 15.3141C12.0142 18.1456 7.6203 18.4624 4.43924 16.2645L7.00242 13.119L11.0999 12.2343L7.75516 11.9L9.88079 9.73566L12.3004 9.20561L10.3871 8.63899L12.3004 5.18747L9.57893 8.24003L8.528 6.75703L8.89795 9.20561L7.00242 11.3425L6.12376 8.63895V12.2343L3.48369 15.4919Z" fill="white"/>
</svg>
