<svg width="19" height="14" viewBox="0 0 19 14" fill="none" xmlns="http://www.w3.org/2000/svg">
<path fill-rule="evenodd" clip-rule="evenodd" d="M4.37503 13.4601C4.37014 13.4601 4.36673 13.4552 4.36835 13.4506L8.96382 0.465526C8.96484 0.462703 8.96751 0.460815 8.9705 0.460815H13.8763C13.8793 0.460815 13.882 0.462717 13.883 0.465558L18.4103 13.4507C18.4119 13.4553 18.4085 13.4601 18.4036 13.4601H4.51312H4.37503ZM0.417722 13.5109C0.412786 13.5109 0.409369 13.5059 0.4111 13.5013L3.83322 4.36515C3.83425 4.36237 3.83689 4.36054 3.83984 4.36054H6.81327C6.81819 4.36054 6.8216 4.36543 6.81991 4.37004L3.51082 13.5062C3.50981 13.509 3.50715 13.5109 3.50417 13.5109H0.417722Z" fill="white"/>
</svg>
