<svg width="19" height="16" viewBox="0 0 19 16" fill="none" xmlns="http://www.w3.org/2000/svg">
<path fill-rule="evenodd" clip-rule="evenodd" d="M14.0623 0.0193964L14.1177 4.8833L9.87539 6.9198L9.82308 2.32735L14.0623 0.0193964Z" fill="white"/>
<path fill-rule="evenodd" clip-rule="evenodd" d="M18.3151 7.68398L14.1155 10.0861L9.91342 7.68018L14.1134 5.47405L18.3151 7.68398Z" fill="white"/>
<path fill-rule="evenodd" clip-rule="evenodd" d="M9.16663 7.68398L4.96702 10.0861L0.764893 7.68018L4.96484 5.47405L9.16663 7.68398Z" fill="white"/>
<path fill-rule="evenodd" clip-rule="evenodd" d="M4.91934 -0.000244141L9.27825 2.15856L9.1668 6.86306L5.05118 4.82476L4.91934 -0.000244141Z" fill="white"/>
<path fill-rule="evenodd" clip-rule="evenodd" d="M14.1815 15.2943L9.82259 13.1354L9.93403 8.43092L14.0497 10.4693L14.1815 15.2943Z" fill="white"/>
<path fill-rule="evenodd" clip-rule="evenodd" d="M5.0705 15.3382L5.01509 10.4743L9.25745 8.43779L9.30977 13.0302L5.0705 15.3382Z" fill="white"/>
</svg>
