<svg width="142" height="123" viewBox="0 0 142 123" fill="none" xmlns="http://www.w3.org/2000/svg">
<path fill-rule="evenodd" clip-rule="evenodd" d="M107.085 0.380371L107.528 39.2914L73.5899 55.5833L73.1714 18.8439L107.085 0.380371Z" fill="#73CEC0"/>
<path fill-rule="evenodd" clip-rule="evenodd" d="M141.107 61.6944L107.51 80.9114L73.8936 61.664L107.493 44.015L141.107 61.6944Z" fill="#73CEC0"/>
<path fill-rule="evenodd" clip-rule="evenodd" d="M67.9176 61.6944L34.3209 80.9114L0.704102 61.664L34.3035 44.015L67.9176 61.6944Z" fill="#73CEC0"/>
<path fill-rule="evenodd" clip-rule="evenodd" d="M33.9434 0.221069L68.8144 17.4914L67.9229 55.1272L34.998 38.8209L33.9434 0.221069Z" fill="#73CEC0"/>
<path fill-rule="evenodd" clip-rule="evenodd" d="M108.034 122.579L73.1633 105.308L74.0549 67.6724L106.98 83.979L108.034 122.579Z" fill="#73CEC0"/>
<path fill-rule="evenodd" clip-rule="evenodd" d="M35.1476 122.929L34.7043 84.018L68.6431 67.7261L69.0616 104.465L35.1476 122.929Z" fill="#73CEC0"/>
</svg>
