<svg width="19" height="18" viewBox="0 0 19 18" fill="none" xmlns="http://www.w3.org/2000/svg">
<g clip-path="url(#clip0_1257_35407)">
<path fill-rule="evenodd" clip-rule="evenodd" d="M15.7453 13.8323C17.5629 12.3789 18.7047 10.2789 18.7047 7.9436C18.7047 3.55646 14.6752 0 9.70464 0C4.73405 0 0.70459 3.55646 0.70459 7.9436C0.70459 10.1946 1.76539 12.2269 3.46983 13.6724C3.36653 14.029 3.30986 14.417 3.30986 14.8227C3.30986 16.5775 4.37025 18.0001 5.67831 18.0001C6.52825 18.0001 7.27364 17.3995 7.69148 16.4973C8.10931 17.3995 8.8547 18.0001 9.70464 18.0001C10.4794 18.0001 11.1673 17.501 11.5994 16.7294C12.0315 17.501 12.7194 18.0001 13.4941 18.0001C14.8022 18.0001 15.8626 16.5775 15.8626 14.8227C15.8626 14.4769 15.8214 14.1439 15.7453 13.8323ZM14.9152 8.10113C14.9152 10.3284 12.5293 12.134 9.58623 12.134C6.64311 12.134 4.25725 10.3284 4.25725 8.10113C4.25725 5.87383 6.64311 4.06823 9.58623 4.06823C12.5293 4.06823 14.9152 5.87383 14.9152 8.10113Z" fill="white"/>
</g>
<defs>
<clipPath id="clip0_1257_35407">
<rect width="18.0001" height="18.0001" fill="white" transform="translate(0.70459)"/>
</clipPath>
</defs>
</svg>
