<svg width="134" height="145" viewBox="0 0 134 145" fill="none" xmlns="http://www.w3.org/2000/svg">
<path fill-rule="evenodd" clip-rule="evenodd" d="M123.309 119.991C123.309 119.991 105.151 134.554 69.0187 128.527C41.6053 123.955 26.9842 93.7357 26.9842 77.4924C26.9842 38.9809 55.4878 30.2168 74.7582 30.2168C94.0283 30.2168 106.599 49.0043 106.599 63.5506C106.599 78.0968 96.3112 90.82 80.3005 90.82C64.2901 90.82 59.5482 79.5799 59.5482 69.2459C59.5482 58.9122 67.9089 55.2714 75.5339 55.2714C83.1588 55.2714 85.7697 61.7812 85.7697 67.3762C85.7697 72.9713 81.4286 74.975 77.8078 74.975C74.187 74.975 73.8289 73.1482 72.4432 71.2284C71.0572 69.3089 74.2106 62.0425 69.0187 62.0425C63.8269 62.0425 62.8591 70.3959 62.8591 70.3959C62.8591 70.3959 64.7519 86.5208 80.3005 86.2427C95.8494 85.9642 103.226 73.9436 101.082 62.0425C98.9384 50.1412 87.3883 37.4947 67.1175 40.0502C46.8467 42.6056 38.5703 63.0874 42.2184 84.9754C45.8665 106.864 72.0883 119.546 92.7053 114.983C113.323 110.42 133.857 95.4944 133.857 57.6514C133.857 19.808 101.082 -2.93921 62.001 0.809661C22.9199 4.55852 -1.3399 38.7258 0.212942 79.7784C1.76578 120.831 40.7199 143.19 73.6596 144.342C106.599 145.494 126.793 126.427 126.793 126.427C126.793 126.427 131.334 122.377 129.554 119.214C127.773 116.052 123.309 119.991 123.309 119.991Z" fill="#FA7179"/>
</svg>
