<svg width="18" height="18" viewBox="0 0 18 18" fill="none" xmlns="http://www.w3.org/2000/svg">
<path fill-rule="evenodd" clip-rule="evenodd" d="M16.1454 14.9477C16.1454 14.9477 13.8757 16.7681 9.35908 16.0148C5.93238 15.4432 4.10474 11.6658 4.10474 9.6354C4.10474 4.82143 7.6677 3.72592 10.0765 3.72592C12.4853 3.72592 14.0567 6.07437 14.0567 7.89266C14.0567 9.71095 12.7707 11.3014 10.7693 11.3014C8.76799 11.3014 8.17525 9.89633 8.17525 8.60458C8.17525 7.31286 9.22035 6.85776 10.1735 6.85776C11.1266 6.85776 11.453 7.67149 11.453 8.37086C11.453 9.07026 10.9103 9.32071 10.4577 9.32071C10.0051 9.32071 9.96036 9.09237 9.78714 8.8524C9.61389 8.61245 10.0081 7.70415 9.35908 7.70415C8.71009 7.70415 8.58912 8.74833 8.58912 8.74833C8.58912 8.74833 8.82572 10.764 10.7693 10.7292C12.7129 10.6944 13.635 9.1918 13.367 7.70415C13.0991 6.21647 11.6553 4.63566 9.12142 4.95509C6.58755 5.27452 5.55301 7.83476 6.00902 10.5708C6.46503 13.3068 9.74277 14.8921 12.3199 14.3218C14.8971 13.7514 17.4639 11.8857 17.4639 7.15525C17.4639 2.42481 13.367 -0.418613 8.48185 0.0499994C3.59669 0.518609 0.564202 4.78954 0.758307 9.92115C0.952413 15.0528 5.82171 17.8476 9.93919 17.9916C14.0567 18.1357 16.5809 15.7522 16.5809 15.7522C16.5809 15.7522 17.1485 15.246 16.926 14.8507C16.7034 14.4554 16.1454 14.9477 16.1454 14.9477Z" fill="white"/>
</svg>
