<svg width="19" height="16" viewBox="0 0 19 16" fill="none" xmlns="http://www.w3.org/2000/svg">
<path fill-rule="evenodd" clip-rule="evenodd" d="M14.7142 7.60526C14.7131 7.60386 14.7127 7.6021 14.713 7.60038L15.8613 0.904262C15.8619 0.901179 15.8646 0.898926 15.8677 0.898926H16.2311C16.2339 0.898926 16.2364 0.900743 16.2372 0.903415L18.8244 9.09498C18.8252 9.09751 18.8243 9.10032 18.8222 9.10198L16.9147 10.5913C16.9118 10.5935 16.9077 10.593 16.9056 10.59L14.7142 7.60526ZM0.787354 12.0443C0.787354 12.0471 0.789139 12.0495 0.791779 12.0504L4.724 13.3361C4.72589 13.3367 4.728 13.3364 4.72966 13.3353L13.5191 7.2673C13.5206 7.26628 13.5215 7.2647 13.5218 7.26294L14.4643 0.938596C14.4649 0.934715 14.4619 0.931228 14.458 0.931228H6.67275C6.67082 0.931228 6.66903 0.932078 6.6678 0.933551L0.788831 8.02563C0.787876 8.02679 0.787354 8.02823 0.787354 8.02974V12.0443ZM6.36257 13.6637L10.6584 15.0709C10.6604 15.0715 10.6625 15.0712 10.6642 15.07L15.7787 11.4014C15.7815 11.3993 15.7822 11.3954 15.7803 11.3926L13.863 8.53944C13.861 8.53645 13.857 8.53568 13.8541 8.53772L6.36257 13.6637Z" fill="white"/>
</svg>
