<svg width="144" height="125" viewBox="0 0 144 125" fill="none" xmlns="http://www.w3.org/2000/svg">
<path fill-rule="evenodd" clip-rule="evenodd" d="M0.0143749 62.4877C-0.00478254 62.4551 -0.00479216 62.4146 0.0143493 62.3817L36.2236 0.516312C36.2424 0.484221 36.277 0.464478 36.3142 0.464478H108.083C108.12 0.464478 108.155 0.484391 108.174 0.516762L143.986 62.3822C144.004 62.4146 144.004 62.4548 143.986 62.4871L108.174 124.283C108.155 124.315 108.12 124.335 108.083 124.335H36.3142C36.277 124.335 36.2424 124.316 36.2236 124.284L0.0143749 62.4877ZM105.361 62.3999C105.361 80.8184 90.4297 95.7497 72.0112 95.7497C53.5927 95.7497 38.6615 80.8184 38.6615 62.3999C38.6615 43.9812 53.5927 29.0502 72.0112 29.0502C90.4297 29.0502 105.361 43.9812 105.361 62.3999Z" fill="#5A8EA2"/>
</svg>
