<svg width="19" height="16" viewBox="0 0 19 16" fill="none" xmlns="http://www.w3.org/2000/svg">
<path fill-rule="evenodd" clip-rule="evenodd" d="M0.530605 7.94874C0.528211 7.94467 0.52821 7.9396 0.530602 7.93549L5.05678 0.20228C5.05914 0.198269 5.06346 0.195801 5.0681 0.195801H14.0392C14.0439 0.195801 14.0482 0.19829 14.0506 0.202336L18.5271 7.93556C18.5295 7.9396 18.5295 7.94463 18.5271 7.94867L14.0506 15.6732C14.0482 15.6773 14.0439 15.6798 14.0392 15.6798H5.0681C5.06346 15.6798 5.05914 15.6773 5.05678 15.6733L0.530605 7.94874ZM13.699 7.93778C13.699 10.2401 11.8326 12.1065 9.53026 12.1065C7.22794 12.1065 5.36152 10.2401 5.36152 7.93778C5.36152 5.63542 7.22794 3.76903 9.53026 3.76903C11.8326 3.76903 13.699 5.63542 13.699 7.93778Z" fill="white"/>
</svg>
