<svg width="12" height="18" viewBox="0 0 12 18" fill="none" xmlns="http://www.w3.org/2000/svg">
<path fill-rule="evenodd" clip-rule="evenodd" d="M11.842 12.1824C11.842 15.395 9.22785 17.9994 6.00306 17.9994C2.77826 17.9994 0.164062 15.395 0.164062 12.1824C0.164062 9.05779 5.68721 0.476418 5.99012 0.00813106C5.99704 -0.00254766 6.0091 -0.00254756 6.01599 0.00813116C6.3189 0.476418 11.842 9.05779 11.842 12.1824ZM5.02971 16.1345C2.06673 15.4862 2.57376 12.204 2.57376 12.204C2.57376 12.204 3.38285 14.1853 5.3463 14.8271C7.30971 15.4689 9.68249 14.5276 9.68249 14.5276C9.68249 14.5276 7.9927 16.7828 5.02971 16.1345Z" fill="white"/>
</svg>
