<svg width="289" height="335" viewBox="0 0 289 335" fill="none" xmlns="http://www.w3.org/2000/svg">
<g opacity="0.125">
<path fill-rule="evenodd" clip-rule="evenodd" d="M166.64 45.4452C253 22.3051 341.634 69.4272 371.847 151.77L280.716 176.188C267.933 150.637 241.514 133.093 211 133.093C167.973 133.093 133.093 167.973 133.093 211C133.093 212.581 133.14 214.149 133.233 215.707L42.0873 240.129C27.0817 153.711 80.2797 68.5852 166.64 45.4452ZM288.768 206.293L379.913 181.871C394.918 268.288 341.72 353.414 255.361 376.554C169 399.695 80.3664 352.572 50.1528 270.229L141.284 245.811C154.068 271.364 180.484 288.906 211 288.906C254.026 288.906 288.907 254.026 288.907 211C288.907 209.419 288.859 207.851 288.768 206.293Z" fill="black" fill-opacity="0.18"/>
<path fill-rule="evenodd" clip-rule="evenodd" d="M164.256 211C164.256 185.184 185.184 164.256 211 164.256C236.816 164.256 257.744 185.184 257.744 211C257.744 236.816 236.816 257.744 211 257.744C185.184 257.744 164.256 236.816 164.256 211Z" fill="black" fill-opacity="0.2"/>
</g>
</svg>
