<svg width="256" height="135" viewBox="0 0 256 135" fill="none" xmlns="http://www.w3.org/2000/svg">
<path d="M0 0H253V75H232.777L175.842 124H0V0Z" fill="url(#paint0_linear_65_415)"/>
<g filter="url(#filter0_di_65_415)">
<path d="M171.985 114.737H0V128H175.484C177.579 128 179.608 127.269 181.221 125.934L209.584 102.468L232.834 83.867C234.43 82.5903 236.413 81.8947 238.457 81.8947H253V68H234.95C232.855 68 230.826 68.7306 229.212 70.066L203.467 91.3684L177.723 112.671C176.109 114.006 174.08 114.737 171.985 114.737Z" fill="#17262F"/>
</g>
<g filter="url(#filter1_d_65_415)">
<circle cx="57" cy="54" r="42" fill="white"/>
<circle cx="57" cy="54" r="41.5882" stroke="#B5C8CE" stroke-width="0.823529"/>
</g>
<circle cx="57" cy="54.8236" r="41.1765" fill="#CFE0E6"/>
<circle cx="57" cy="54.8235" r="32.9412" fill="#1675D3"/>
<g style="mix-blend-mode:overlay">
<circle cx="57" cy="54.8235" r="32.9412" fill="url(#paint1_radial_65_415)"/>
</g>
<path d="M77.5882 47.8236C77.5882 55.3281 70.829 43.7059 57.4118 43.7059C43.9945 43.7059 37.2353 55.3281 37.2353 47.8236C37.2353 40.319 43.9945 30.1177 57.4118 30.1177C70.829 30.1177 77.5882 40.319 77.5882 47.8236Z" fill="url(#paint2_linear_65_415)"/>
<g style="mix-blend-mode:overlay">
<circle cx="57.4118" cy="70.8824" r="6.17647" fill="white"/>
</g>
<g filter="url(#filter2_d_65_415)">
<circle cx="130" cy="30" r="14" fill="#A6292A"/>
<g style="mix-blend-mode:overlay">
<circle cx="130" cy="30" r="14" fill="url(#paint3_radial_65_415)"/>
</g>
<path d="M138.75 27.025C138.75 30.2144 135.877 25.275 130.175 25.275C124.473 25.275 121.6 30.2144 121.6 27.025C121.6 23.8356 124.473 19.5 130.175 19.5C135.877 19.5 138.75 23.8356 138.75 27.025Z" fill="url(#paint4_linear_65_415)"/>
<g style="mix-blend-mode:overlay">
<circle cx="130.175" cy="36.825" r="2.625" fill="white"/>
</g>
</g>
<g filter="url(#filter3_d_65_415)">
<circle cx="165" cy="30" r="14" fill="#8E6500"/>
<g style="mix-blend-mode:overlay">
<circle cx="165" cy="30" r="14" fill="url(#paint5_radial_65_415)"/>
</g>
<path d="M173.75 27.025C173.75 30.2144 170.877 25.275 165.175 25.275C159.473 25.275 156.6 30.2144 156.6 27.025C156.6 23.8356 159.473 19.5 165.175 19.5C170.877 19.5 173.75 23.8356 173.75 27.025Z" fill="url(#paint6_linear_65_415)"/>
<g style="mix-blend-mode:overlay">
<circle cx="165.175" cy="36.825" r="2.625" fill="white"/>
</g>
</g>
<g filter="url(#filter4_d_65_415)">
<circle cx="200" cy="30" r="14" fill="#0F5F1B"/>
<g style="mix-blend-mode:overlay">
<circle cx="200" cy="30" r="14" fill="url(#paint7_radial_65_415)"/>
</g>
<path d="M208.75 27.025C208.75 30.2144 205.877 25.275 200.175 25.275C194.473 25.275 191.6 30.2144 191.6 27.025C191.6 23.8356 194.473 19.5 200.175 19.5C205.877 19.5 208.75 23.8356 208.75 27.025Z" fill="url(#paint8_linear_65_415)"/>
<g style="mix-blend-mode:overlay">
<circle cx="200.175" cy="36.825" r="2.625" fill="white"/>
</g>
</g>
<defs>
<filter id="filter0_di_65_415" x="-3" y="68" width="259" height="67" filterUnits="userSpaceOnUse" color-interpolation-filters="sRGB">
<feFlood flood-opacity="0" result="BackgroundImageFix"/>
<feColorMatrix in="SourceAlpha" type="matrix" values="0 0 0 0 0 0 0 0 0 0 0 0 0 0 0 0 0 0 127 0" result="hardAlpha"/>
<feOffset dy="4"/>
<feGaussianBlur stdDeviation="1.5"/>
<feComposite in2="hardAlpha" operator="out"/>
<feColorMatrix type="matrix" values="0 0 0 0 0 0 0 0 0 0 0 0 0 0 0 0 0 0 0.15 0"/>
<feBlend mode="normal" in2="BackgroundImageFix" result="effect1_dropShadow_65_415"/>
<feBlend mode="normal" in="SourceGraphic" in2="effect1_dropShadow_65_415" result="shape"/>
<feColorMatrix in="SourceAlpha" type="matrix" values="0 0 0 0 0 0 0 0 0 0 0 0 0 0 0 0 0 0 127 0" result="hardAlpha"/>
<feOffset dy="4"/>
<feComposite in2="hardAlpha" operator="arithmetic" k2="-1" k3="1"/>
<feColorMatrix type="matrix" values="0 0 0 0 0 0 0 0 0 0 0 0 0 0 0 0 0 0 0.15 0"/>
<feBlend mode="normal" in2="shape" result="effect2_innerShadow_65_415"/>
</filter>
<filter id="filter1_d_65_415" x="8.41176" y="8.70588" width="97.1765" height="97.1765" filterUnits="userSpaceOnUse" color-interpolation-filters="sRGB">
<feFlood flood-opacity="0" result="BackgroundImageFix"/>
<feColorMatrix in="SourceAlpha" type="matrix" values="0 0 0 0 0 0 0 0 0 0 0 0 0 0 0 0 0 0 127 0" result="hardAlpha"/>
<feOffset dy="3.29412"/>
<feGaussianBlur stdDeviation="3.29412"/>
<feComposite in2="hardAlpha" operator="out"/>
<feColorMatrix type="matrix" values="0 0 0 0 0 0 0 0 0 0 0 0 0 0 0 0 0 0 0.25 0"/>
<feBlend mode="normal" in2="BackgroundImageFix" result="effect1_dropShadow_65_415"/>
<feBlend mode="normal" in="SourceGraphic" in2="effect1_dropShadow_65_415" result="shape"/>
</filter>
<filter id="filter2_d_65_415" x="113.2" y="14.6" width="33.6" height="33.6" filterUnits="userSpaceOnUse" color-interpolation-filters="sRGB">
<feFlood flood-opacity="0" result="BackgroundImageFix"/>
<feColorMatrix in="SourceAlpha" type="matrix" values="0 0 0 0 0 0 0 0 0 0 0 0 0 0 0 0 0 0 127 0" result="hardAlpha"/>
<feOffset dy="1.4"/>
<feGaussianBlur stdDeviation="1.4"/>
<feComposite in2="hardAlpha" operator="out"/>
<feColorMatrix type="matrix" values="0 0 0 0 0 0 0 0 0 0 0 0 0 0 0 0 0 0 0.5 0"/>
<feBlend mode="normal" in2="BackgroundImageFix" result="effect1_dropShadow_65_415"/>
<feBlend mode="normal" in="SourceGraphic" in2="effect1_dropShadow_65_415" result="shape"/>
</filter>
<filter id="filter3_d_65_415" x="148.2" y="14.6" width="33.6" height="33.6" filterUnits="userSpaceOnUse" color-interpolation-filters="sRGB">
<feFlood flood-opacity="0" result="BackgroundImageFix"/>
<feColorMatrix in="SourceAlpha" type="matrix" values="0 0 0 0 0 0 0 0 0 0 0 0 0 0 0 0 0 0 127 0" result="hardAlpha"/>
<feOffset dy="1.4"/>
<feGaussianBlur stdDeviation="1.4"/>
<feComposite in2="hardAlpha" operator="out"/>
<feColorMatrix type="matrix" values="0 0 0 0 0 0 0 0 0 0 0 0 0 0 0 0 0 0 0.5 0"/>
<feBlend mode="normal" in2="BackgroundImageFix" result="effect1_dropShadow_65_415"/>
<feBlend mode="normal" in="SourceGraphic" in2="effect1_dropShadow_65_415" result="shape"/>
</filter>
<filter id="filter4_d_65_415" x="183.2" y="14.6" width="33.6" height="33.6" filterUnits="userSpaceOnUse" color-interpolation-filters="sRGB">
<feFlood flood-opacity="0" result="BackgroundImageFix"/>
<feColorMatrix in="SourceAlpha" type="matrix" values="0 0 0 0 0 0 0 0 0 0 0 0 0 0 0 0 0 0 127 0" result="hardAlpha"/>
<feOffset dy="1.4"/>
<feGaussianBlur stdDeviation="1.4"/>
<feComposite in2="hardAlpha" operator="out"/>
<feColorMatrix type="matrix" values="0 0 0 0 0 0 0 0 0 0 0 0 0 0 0 0 0 0 0.5 0"/>
<feBlend mode="normal" in2="BackgroundImageFix" result="effect1_dropShadow_65_415"/>
<feBlend mode="normal" in="SourceGraphic" in2="effect1_dropShadow_65_415" result="shape"/>
</filter>
<linearGradient id="paint0_linear_65_415" x1="198.011" y1="0" x2="198.011" y2="81" gradientUnits="userSpaceOnUse">
<stop stop-color="#E43839"/>
<stop offset="0.9999" stop-color="#CE2034"/>
</linearGradient>
<radialGradient id="paint1_radial_65_415" cx="0" cy="0" r="1" gradientUnits="userSpaceOnUse" gradientTransform="translate(57 54.8235) rotate(90) scale(32.9412)">
<stop offset="0.745" stop-color="white"/>
<stop offset="1" stop-color="white" stop-opacity="0"/>
</radialGradient>
<linearGradient id="paint2_linear_65_415" x1="57.4118" y1="30.1177" x2="57.4118" y2="50.3474" gradientUnits="userSpaceOnUse">
<stop stop-color="white"/>
<stop offset="1" stop-color="white" stop-opacity="0.5"/>
</linearGradient>
<radialGradient id="paint3_radial_65_415" cx="0" cy="0" r="1" gradientUnits="userSpaceOnUse" gradientTransform="translate(130 30) rotate(90) scale(14)">
<stop offset="0.745" stop-color="white"/>
<stop offset="1" stop-color="white" stop-opacity="0"/>
</radialGradient>
<linearGradient id="paint4_linear_65_415" x1="130.175" y1="19.5" x2="130.175" y2="28.0976" gradientUnits="userSpaceOnUse">
<stop stop-color="white"/>
<stop offset="1" stop-color="white" stop-opacity="0.5"/>
</linearGradient>
<radialGradient id="paint5_radial_65_415" cx="0" cy="0" r="1" gradientUnits="userSpaceOnUse" gradientTransform="translate(165 30) rotate(90) scale(14)">
<stop offset="0.745" stop-color="white"/>
<stop offset="1" stop-color="white" stop-opacity="0"/>
</radialGradient>
<linearGradient id="paint6_linear_65_415" x1="165.175" y1="19.5" x2="165.175" y2="28.0976" gradientUnits="userSpaceOnUse">
<stop stop-color="white"/>
<stop offset="1" stop-color="white" stop-opacity="0.5"/>
</linearGradient>
<radialGradient id="paint7_radial_65_415" cx="0" cy="0" r="1" gradientUnits="userSpaceOnUse" gradientTransform="translate(200 30) rotate(90) scale(14)">
<stop offset="0.745" stop-color="white"/>
<stop offset="1" stop-color="white" stop-opacity="0"/>
</radialGradient>
<linearGradient id="paint8_linear_65_415" x1="200.175" y1="19.5" x2="200.175" y2="28.0976" gradientUnits="userSpaceOnUse">
<stop stop-color="white"/>
<stop offset="1" stop-color="white" stop-opacity="0.5"/>
</linearGradient>
</defs>
</svg>
